# xmcd CD database file
#
# Track frame offsets:
#	150
#	14863
#	33446
#	45060
#	59886
#	76767
#	91236
#	104942
#	118098
#	131975
#	147684
#
# Disc length: 2189 seconds
#
# Revision: 0
# Processed by: cddbd v1.4PL0 Copyright (c) Steve Scherf et al.
# Submitted via: CDex 1.50beta10
#
DISCID=a5088b0b
DTITLE=Dr. Slide - Slidin' By
DYEAR=1900
DGENRE=Blues
TTITLE0=I Got A Beautiful Woman
TTITLE1=Goin' Back To Mississippi
TTITLE2=Gotta Go
TTITLE3=I Wasn't Born Here
TTITLE4=A Frien For Life
TTITLE5=Finished With You 
TTITLE6=Stop Cryin'
TTITLE7=Feeling Blue
TTITLE8=The Small Man's Blues 
TTITLE9=I Can Read You Baby
TTITLE10=Riding The Same Old Train 
EXTD=
EXTT0=
EXTT1=
EXTT2=
EXTT3=
EXTT4=
EXTT5=
EXTT6=
EXTT7=
EXTT8=
EXTT9=
EXTT10=
PLAYORDER=
